inDegrees=no
num_controls=7
num_derivatives=13
num_iterations=136
num_multipliers=7
num_parameters=0
num_slacks=7
num_states=26
objective=1.082141
objective_accelerations=0.158780
objective_balance=0.007714
objective_effort=0.065492
objective_height=0.844621
objective_ligament=0.005533
solver_duration=1469.231625
status=Solve_Succeeded
success=true
DataType=double
version=3
OpenSimVersion=4.5
endheader
time	/jointset/ground_pelvis/pelvis_tilt/value	/jointset/ground_pelvis/pelvis_tx/value	/jointset/ground_pelvis/pelvis_ty/value	/jointset/hip_r/hip_flexion_r/value	/jointset/hip_r/hip_adduction_r/value	/jointset/hip_r/hip_rotation_r/value	/jointset/back/lumbar_extension/value	/jointset/patellofemoral_r/patellar_flexion_r/value	/jointset/knee_r/knee_flexion_r/value	/jointset/knee_r/knee_adduction_r/value	/jointset/knee_r/knee_rotation_r/value	/jointset/ankle_r/ankle_angle_r/value	/jointset/subtalar_r/subtalar_angle_r/value	/jointset/ground_pelvis/pelvis_tilt/speed	/jointset/ground_pelvis/pelvis_tx/speed	/jointset/ground_pelvis/pelvis_ty/speed	/jointset/hip_r/hip_flexion_r/speed	/jointset/hip_r/hip_adduction_r/speed	/jointset/hip_r/hip_rotation_r/speed	/jointset/back/lumbar_extension/speed	/jointset/patellofemoral_r/patellar_flexion_r/speed	/jointset/knee_r/knee_flexion_r/speed	/jointset/knee_r/knee_adduction_r/speed	/jointset/knee_r/knee_rotation_r/speed	/jointset/ankle_r/ankle_angle_r/speed	/jointset/subtalar_r/subtalar_angle_r/speed	/forceset/tau_hip_flexion_r	/forceset/tau_hip_adduction_r	/forceset/tau_hip_rotation_r	/forceset/tau_knee_flexion_r	/forceset/tau_ankle_angle_r	/forceset/tau_subtalar_angle_r	/forceset/tau_lumbar_extension	lambda_cid13_p0	lambda_cid14_p0	lambda_cid14_p1	lambda_cid14_p2	lambda_cid14_p3	lambda_cid14_p4	lambda_cid14_p5	/jointset/ground_pelvis/pelvis_tilt/accel	/jointset/ground_pelvis/pelvis_tx/accel	/jointset/ground_pelvis/pelvis_ty/accel	/jointset/hip_r/hip_flexion_r/accel	/jointset/hip_r/hip_adduction_r/accel	/jointset/hip_r/hip_rotation_r/accel	/jointset/back/lumbar_extension/accel	/jointset/patellofemoral_r/patellar_flexion_r/accel	/jointset/knee_r/knee_flexion_r/accel	/jointset/knee_r/knee_adduction_r/accel	/jointset/knee_r/knee_rotation_r/accel	/jointset/ankle_r/ankle_angle_r/accel	/jointset/subtalar_r/subtalar_angle_r/accel	gamma_cid13_p0	gamma_cid14_p0	gamma_cid14_p1	gamma_cid14_p2	gamma_cid14_p3	gamma_cid14_p4	gamma_cid14_p5
1	-0.06737623394994703	-0.09344324727760751	0.3351203612708265	2.181557614409174	-0.206915362017222	0.1334557409195873	-0.7853978198702687	2.181661557034745	2.181661557034776	-0.1737612169009977	0.1745035759978781	0.1953201761101852	0.1193352427423252	0.038271105371136	-0.003226429106137742	-0.003600087410013217	-0.01558496910178013	0.003106672294707758	0.006206494026612491	6.428035329189173e-06	0.01106390499757702	0.01106390499757706	0.0005755195042840695	-0.0007574807125221743	-0.01154032062379751	3.649441450982206e-05	-0.1668851003176373	-0.0766574824854977	-0.01713111081375421	-0.513519910332242	0.2814327857278239	-0.02616130065160836	0.2403497792514097	-0.02462545870820201	39.9354763278044	-8.419550659130016	6.390440234493051	-7.730704829428746	-702.9558776658776	98.12102469466488	-1.634918747791262	-0.2019030428915056	0.7471564162935481	-1.021872822991532	-0.3992343238886292	-1.28338281544507	0.01230626725138579	-2.130422611173612	-2.130422611173677	-0.2583632240241526	0.007782733318713909	0.4280625302392763	-0.3727014040792472	3.397335232053886e-09	-1.351695810246289e-08	-4.120629764283599e-09	6.89877223048607e-09	5.129517497464639e-08	2.261835507625991e-08	3.153776898854328e-09
1.01	-0.06707328792323543	-0.09348606706257787	0.3351239847198969	2.181341731960333	-0.2069042261385196	0.1334528998739619	-0.7853975724149632	2.181661526226472	2.181661526226351	-0.1737678958169544	0.1744956881220393	0.195228924351711	0.119318012984803	0.02248022956968735	-0.005383124209744052	0.004544502579632026	-0.02842530550034916	-0.000898934133287642	-0.00684601854302302	4.086549360267158e-05	-0.01148580655381323	-0.01148580655381319	-0.001845708174222031	-0.0008466644550961715	-0.006461472051829122	-0.003419037577521236	-0.1729213897505249	-0.07678324001986229	-0.01719509674402549	-0.5174658756654973	0.2800966172539371	-0.0265894758176547	0.2460421375390015	-0.02450668448071101	38.9243867559256	-8.753748523624289	6.41083183517773	-5.605632178620236	-710.3426449535409	98.69043481595165	-1.526848758004221	-0.2293654547263504	0.8810811968568731	-1.540179001120927	-0.4041316680766421	-1.326881465671045	-0.001317144034782756	-2.379609532032543	-2.379609532032517	-0.2241708948076813	-0.02124325775235459	0.5850732052147242	-0.3224617513200545	1.547442379356484e-08	-3.204445815452416e-08	5.358930998885865e-09	3.654185245400529e-08	1.328646927411535e-07	6.013667975380599e-08	1.233846410280096e-07
1.02	-0.06692338600687392	-0.09355181634071057	0.3352156482501751	2.18097243315694	-0.2069337278972603	0.1333173945050521	-0.7853970465109558	2.181423525481704	2.18142352548168	-0.1737968206806971	0.1744861135428226	0.1951959165158644	0.1192681313764496	0.007662283300935236	-0.007812327738607615	0.01400792883155547	-0.0462682400121738	-0.005020855194148751	-0.02032637063058795	6.211778586935658e-05	-0.03653008230163723	-0.03653008230163693	-0.00387367005448101	-0.001094821385945953	0.0001084639017035335	-0.006493875751753001	-0.1789576791834157	-0.07690899755422795	-0.01725908267431876	-0.5214118409987517	0.2787604487800514	-0.02701765098370175	0.2517344958265909	-0.02439390959395429	37.91816036413481	-9.088683994677252	6.43315632344905	-3.492876624014704	-717.6703988852956	99.21065596884746	-1.440332841252008	-0.2564047279429865	1.010923668749222	-2.022392445642698	-0.4224972504617955	-1.368950719030972	0.009669234049995978	-2.629335450460494	-2.629335450460509	-0.1797100643746867	-0.0240119043364057	0.7262800065520872	-0.2965626405194365	1.777466224796608e-08	-3.509794560375869e-08	9.626317547948171e-09	4.500153292709248e-08	1.447892198463873e-07	6.580255814898278e-08	1.581524026499586e-07
1.03	-0.06691810892321853	-0.09364355568332071	0.3354085263171048	2.180401044609422	-0.2070047975855404	0.1330451459936319	-0.7853963839439853	2.180921583518555	2.180921583518543	-0.1738436964179323	0.1744732019422068	0.1952349101307216	0.1191893043886207	-0.006568140987432272	-0.01061341769692396	0.0247858973073979	-0.06870837558195275	-0.009198648487783588	-0.0342137019375514	6.196730411884164e-05	-0.06437346834691995	-0.06437346834691933	-0.005429527893852288	-0.001522047221204737	0.00781869428233173	-0.009232168324937574	-0.1842262576696625	-0.07683159596976123	-0.01734049454576961	-0.5264035119590149	0.2777274459166404	-0.02744418729083493	0.2566073458966715	-0.0243210473250486	36.98916081380976	-9.413670328885713	6.458788369941816	-0.899582998874025	-724.9592398998955	99.90244772373524	-1.408583857380138	-0.3036113982236569	1.143979611010853	-2.459656690206871	-0.4162454745973729	-1.412177796541751	-0.006121435192256237	-2.939117892742396	-2.939117892742326	-0.1327424573261274	-0.05724363829593067	0.8126515718768845	-0.2565499519645798	1.997513692576411e-08	-3.799353496520918e-08	1.384051864584609e-08	5.324505625986904e-08	1.560030837816077e-07	7.114341158209439e-08	1.920480917973437e-07
